<svg width="102" height="135" viewBox="0 0 102 135" fill="none" xmlns="http://www.w3.org/2000/svg">
<path d="M101.474 54.7755C103.579 40.6791 92.8431 33.1047 78.1519 28.0474L82.9111 8.94362L71.289 6.04834L66.6569 24.6422C63.6054 23.882 60.4656 23.161 57.3483 22.4543L62.0112 3.73704L50.3891 0.841771L45.6259 19.927C43.0967 19.3494 40.6087 18.782 38.1987 18.1816L38.2131 18.124L22.1845 14.1223L19.0909 26.5401C19.0909 26.5401 27.7189 28.5148 27.5319 28.6342C32.2448 29.8083 33.0945 32.9197 32.9507 35.3906L27.5299 57.1506C27.8589 57.2326 28.2742 57.3535 28.7349 57.5381L27.5094 57.2328L19.9066 87.7162C19.3322 89.1453 17.8724 91.2883 14.5803 90.4769C14.6956 90.6454 6.13317 88.3726 6.13317 88.3726L0.363713 101.678L15.4978 105.449C18.3108 106.149 21.0704 106.889 23.7806 107.582L18.9764 126.902L30.5902 129.795L35.3514 110.683C38.5181 111.542 41.5963 112.335 44.6149 113.087L39.8681 132.106L51.4901 135.001L56.2922 115.725C76.1136 119.475 91.0355 117.961 97.3026 100.027C102.358 85.5914 97.0526 77.2563 86.6208 71.8276C94.2258 70.0888 99.9511 65.0955 101.474 54.7755ZM74.916 92.0222C71.3205 106.455 47.0119 98.661 39.124 96.696L45.5016 71.0955C53.3854 73.077 78.6651 76.9727 74.916 92.0222ZM78.4997 54.5635C75.2279 67.6968 54.9826 61.02 48.4169 59.3931L54.1984 36.1857C60.7702 37.8229 81.919 40.873 78.4997 54.5635Z" fill="white"/>
</svg>
