<svg width="118" height="111" viewBox="0 0 118 111" fill="none" xmlns="http://www.w3.org/2000/svg">
<path d="M104.947 0.381836H12.5586V22.6861H47.6006V55.4693H69.9049V22.6861H104.947V0.381836Z" fill="white"/>
<path d="M58.965 58.962C29.9772 58.962 6.47569 54.3743 6.47569 48.7143C6.47569 43.0553 29.9762 38.4666 58.965 38.4666C87.9528 38.4666 111.453 43.0553 111.453 48.7143C111.453 54.3743 87.9528 58.962 58.965 58.962ZM117.902 50.4228C117.902 43.1246 91.515 37.209 58.965 37.209C26.4159 37.209 0.0273438 43.1246 0.0273438 50.4228C0.0273438 56.8496 20.4886 62.2042 47.6021 63.3907V110.452H69.9044V63.4092C97.2267 62.2598 117.902 56.8828 117.902 50.4228Z" fill="white"/>
</svg>
