<svg width="57" height="56" viewBox="0 0 57 56" fill="none" xmlns="http://www.w3.org/2000/svg">
<rect x="0.5" width="56" height="56" rx="28" fill="url(#paint0_linear_16001_140)"/>
<path d="M40.4661 20.6957C40.0735 16.546 36.5494 15.1553 32.0961 14.7586V9H28.6501V14.6049C27.7453 14.6049 26.8185 14.6223 25.8991 14.6421V9H22.4531L22.4506 14.7537C21.7043 14.7685 20.9703 14.7834 20.2557 14.7834V14.7661L15.5024 14.7636V18.5068C15.5024 18.5068 18.0486 18.4572 18.0047 18.5043C19.4021 18.5043 19.8557 19.3274 19.9874 20.0388V26.5981C20.085 26.5981 20.2093 26.6031 20.3508 26.6229H19.9874L19.985 35.8124C19.924 36.2587 19.6655 36.9701 18.69 36.9726C18.7339 37.0123 16.1853 36.9726 16.1853 36.9726L15.5 41.1571H19.9874C20.8215 41.1571 21.6434 41.172 22.4482 41.1769L22.4506 47H25.8942V41.2389C26.838 41.2587 27.7526 41.2662 28.6476 41.2662L28.6452 47H32.0912V41.1893C37.8859 40.8522 41.9465 39.3673 42.4489 33.8342C42.8562 29.3795 40.7954 27.3889 37.5054 26.5858C39.5077 25.5545 40.7588 23.7325 40.4661 20.6957ZM35.6421 33.1451C35.6421 37.4957 28.3135 37.0023 25.9747 37.0023V29.2853C28.3135 29.2903 35.6421 28.6086 35.6421 33.1451ZM34.0374 22.26C34.0374 26.2189 27.9209 25.7553 25.9747 25.7578V18.7621C27.9233 18.7621 34.0399 18.1325 34.0374 22.26Z" fill="white"/>
<path d="M19.5 26H20.5V26.3842H19.5V26Z" fill="white"/>
<defs>
<linearGradient id="paint0_linear_16001_140" x1="-9.17273" y1="95.2" x2="46.3182" y2="1.92341e-06" gradientUnits="userSpaceOnUse">
<stop stop-color="#FF930F"/>
<stop offset="1" stop-color="#FBC411"/>
</linearGradient>
</defs>
</svg>
