<svg width="57" height="56" viewBox="0 0 57 56" fill="none" xmlns="http://www.w3.org/2000/svg">
<rect x="0.5" width="56" height="56" rx="28" fill="url(#paint0_linear_16001_144)"/>
<path d="M37.9542 16H19.0447C15.5679 16 13.3643 19.7503 15.1134 22.7821L26.7836 43.0094C27.5452 44.3302 29.4537 44.3302 30.2152 43.0094L41.8879 22.7821C43.6347 19.7552 41.431 16 37.9566 16H37.9542ZM26.7741 36.9436L24.2326 32.0248L18.1 21.0568C17.6954 20.3548 18.1951 19.4552 19.0423 19.4552H26.7718V36.9459L26.7741 36.9436ZM38.8942 21.0545L32.764 32.0272L30.2224 36.9436V19.4529H37.9519C38.799 19.4529 39.2987 20.3525 38.8942 21.0545Z" fill="white"/>
<defs>
<linearGradient id="paint0_linear_16001_144" x1="52.6818" y1="-4.32727" x2="8.64545" y2="68.4727" gradientUnits="userSpaceOnUse">
<stop stop-color="#04BEFE"/>
<stop offset="1" stop-color="#4481EB"/>
</linearGradient>
</defs>
</svg>
