<svg width="57" height="56" viewBox="0 0 57 56" fill="none" xmlns="http://www.w3.org/2000/svg">
<rect x="0.5" width="56" height="56" rx="28" fill="url(#paint0_linear_16001_146)"/>
<path fill-rule="evenodd" clip-rule="evenodd" d="M41.8545 21.1073L41.8545 21.1073C40.7407 20.0152 39.5638 18.8613 38.5251 17.9304L38.4199 17.856C38.2448 17.7141 38.0475 17.6027 37.836 17.5266L37.0344 17.3756C31.5032 16.3334 13.5738 12.9552 13.2049 13.0005C13.0959 13.0159 12.9916 13.0558 12.8998 13.1173L12.7999 13.197C12.6768 13.3232 12.5833 13.4757 12.5263 13.6433L12.5 13.7123V14.0895V14.1479C13.7172 17.5707 16.8793 25.2145 19.7989 32.2723L19.799 32.2723C22.2674 38.2393 24.5625 43.7874 25.3626 46.0119L25.3629 46.0128C25.4682 46.3424 25.6681 46.9682 26.0413 47H26.1254C26.3254 47 27.1776 45.8631 27.1776 45.8631C27.1776 45.8631 42.4128 27.2059 43.9543 25.219C44.1538 24.9743 44.3299 24.711 44.4803 24.4328C44.5584 23.99 44.4007 23.5382 44.0647 23.2428C43.4085 22.6309 42.6476 21.885 41.8548 21.1076L41.8545 21.1073ZM31.5 25L37.8029 20L41.5 23.2585L31.5 25ZM17.5 16L28.6252 25L35.5 19.2769L17.5 16ZM29.1289 27.872L40.5 26L27.5 42L29.1289 27.872ZM27.5 27.1539L15.5 17L25.7635 42L27.5 27.1539Z" fill="white"/>
<defs>
<linearGradient id="paint0_linear_16001_146" x1="37.1545" y1="8.14545" x2="0.500002" y2="83.4909" gradientUnits="userSpaceOnUse">
<stop stop-color="#FC070C"/>
<stop offset="1" stop-color="#F45C43"/>
</linearGradient>
</defs>
</svg>
