<svg width="57" height="56" viewBox="0 0 57 56" fill="none" xmlns="http://www.w3.org/2000/svg">
<rect x="0.5" width="56" height="56" rx="28" fill="url(#paint0_linear_16001_154)"/>
<path d="M36.5 32.7717C36.5 28.5602 33.9925 27.1162 28.9776 26.5147C25.3955 26.0333 24.679 25.0707 24.679 23.3859C24.679 21.701 25.8732 20.6183 28.2611 20.6183C30.4104 20.6183 31.6045 21.3403 32.2015 23.1453C32.321 23.5063 32.6792 23.7469 33.0374 23.7469H34.9477C35.4254 23.7469 35.7836 23.3859 35.7836 22.9047V22.7843C35.3059 20.1369 33.1566 18.0914 30.4104 17.8508V14.9628C30.4104 14.4814 30.0522 14.1204 29.4553 14H27.6642C27.1865 14 26.8283 14.361 26.7088 14.9628V17.7304C23.1267 18.2118 20.8582 20.6183 20.8582 23.6267C20.8582 27.5977 23.2462 29.1618 28.2611 29.7636C31.6045 30.3652 32.6792 31.0872 32.6792 33.0126C32.6792 34.938 31.0073 36.2615 28.7389 36.2615C25.6342 36.2615 24.5595 34.9377 24.2013 33.1327C24.0821 32.6516 23.7239 32.4107 23.3657 32.4107H21.3356C20.8582 32.4107 20.5 32.7717 20.5 33.2531V33.3736C20.9774 36.3817 22.888 38.5476 26.8283 39.1495V42.0374C26.8283 42.5186 27.1865 42.8796 27.7834 43H29.5745C30.0522 43 30.4104 42.639 30.5299 42.0374V39.1495C34.112 38.5476 36.5 36.0207 36.5 32.7717Z" fill="white"/>
<path fill-rule="evenodd" clip-rule="evenodd" d="M12.2814 22.3886C8.85657 31.5452 13.5803 41.8908 22.7915 45.2203C23.1457 45.4583 23.5 45.9338 23.5 46.2905V47.9555C23.5 48.1932 23.5 48.3123 23.3818 48.431C23.2639 48.9067 22.7915 49.1445 22.319 48.9067C15.706 46.7663 10.6279 41.6528 8.50229 34.9937C4.95955 23.6968 11.1004 11.6862 22.319 8.11872C22.4372 8 22.6733 8 22.7915 8C23.2639 8.11872 23.5 8.47547 23.5 8.95123V10.6159C23.5 11.2107 23.2639 11.5675 22.7915 11.8052C17.9498 13.5889 14.0528 17.3941 12.2814 22.3886ZM34.6182 8.56737C34.7361 8.09299 35.2085 7.85594 35.681 8.09299C42.1758 10.2273 47.3721 15.3259 49.4977 22.0845C53.0404 33.3486 46.8996 45.3245 35.681 48.8816C35.5628 49 35.3267 49 35.2085 49C34.7361 48.8816 34.5 48.5259 34.5 48.0515V46.3916C34.5 45.7986 34.7361 45.4429 35.2085 45.2058C40.0502 43.4273 43.9472 39.6331 45.7186 34.6531C49.1434 25.5229 44.4197 15.2073 35.2085 11.8875C34.8543 11.6501 34.5 11.176 34.5 10.7016V9.04175C34.5 8.80442 34.5 8.68603 34.6182 8.56737Z" fill="white"/>
<defs>
<linearGradient id="paint0_linear_16001_154" x1="31.5545" y1="22.9091" x2="-21.9" y2="102.327" gradientUnits="userSpaceOnUse">
<stop stop-color="#2775CA"/>
<stop offset="1" stop-color="#00BBF9"/>
</linearGradient>
</defs>
</svg>
