<svg width="63" height="63" viewBox="0 0 63 63" fill="none" xmlns="http://www.w3.org/2000/svg">
<rect width="63" height="63" rx="31.5" fill="url(#paint0_linear_1326_126)"/>
<path fill-rule="evenodd" clip-rule="evenodd" d="M8.50911 27.5099C8.40338 27.5099 8.37728 27.4568 8.42992 27.3781L8.98377 26.6659C9.03598 26.5867 9.16824 26.534 9.27353 26.534H18.6872C18.7929 26.534 18.819 26.6132 18.7664 26.6924L18.3182 27.3781C18.2656 27.4568 18.1338 27.536 18.0546 27.536L8.50911 27.5099ZM4.52732 29.9354C4.42204 29.9354 4.3955 29.8832 4.44814 29.8036L5.00199 29.0918C5.05463 29.0126 5.18646 28.96 5.29218 28.96H17.3158C17.4211 28.96 17.4742 29.0392 17.4477 29.1184L17.2367 29.751C17.2106 29.8567 17.1048 29.9093 16.9995 29.9093L4.52732 29.9354ZM10.9081 32.3614C10.8028 32.3614 10.7767 32.2822 10.8293 32.203L11.1983 31.5439C11.2514 31.4647 11.3567 31.386 11.4624 31.386H16.7355C16.8412 31.386 16.8938 31.4647 16.8938 31.5704L16.8416 32.203C16.8416 32.3087 16.7359 32.3879 16.6567 32.3879L10.9081 32.3614ZM38.2785 27.0352C36.617 27.4573 35.4832 27.7736 33.8486 28.1951C33.4527 28.3009 33.4266 28.327 33.0837 27.9315C32.6882 27.4834 32.3981 27.1932 31.8446 26.9295C30.1831 26.1124 28.5746 26.3496 27.0719 27.3254C25.279 28.4853 24.3562 30.1991 24.3823 32.3349C24.4084 34.4445 25.8589 36.1848 27.942 36.475C29.735 36.7121 31.2382 36.0791 32.4246 34.7347C32.6617 34.4445 32.8727 34.1282 33.1364 33.7588H28.0473C27.4939 33.7588 27.3621 33.416 27.5466 32.9679C27.8894 32.1504 28.522 30.7795 28.8909 30.0938C28.9706 29.9354 29.155 29.6718 29.5505 29.6718H39.1482C39.096 30.384 39.096 31.0958 38.9903 31.808C38.7001 33.7062 37.9883 35.4465 36.828 36.9758C34.9293 39.4809 32.4511 41.0363 29.313 41.4583C26.7291 41.8012 24.3296 41.3 22.2204 39.718C20.2691 38.2414 19.1618 36.2901 18.8717 33.8646C18.5288 30.9905 19.3724 28.4061 21.1127 26.1386C22.9848 23.6865 25.4634 22.1307 28.4959 21.5768C30.9745 21.1287 33.3474 21.4189 35.4832 22.869C36.8806 23.7918 37.8826 25.0574 38.5417 26.5867C38.7001 26.8242 38.5948 26.9561 38.2781 27.0348L38.2785 27.0352Z" fill="white"/>
<path d="M47.0063 41.6168C44.6069 41.5637 42.418 40.8785 40.5724 39.2961C39.0166 37.9517 38.0412 36.2376 37.7249 34.2071C37.2502 31.2277 38.0673 28.5907 39.8607 26.2444C41.7854 23.7127 44.1057 22.3944 47.2438 21.8406C49.933 21.3664 52.4647 21.63 54.7584 23.1854C56.8415 24.6094 58.1333 26.5341 58.4761 29.0654C58.9242 32.6252 57.8961 35.5258 55.4436 38.0044C53.7033 39.7708 51.5676 40.8785 49.1155 41.3792C48.4037 41.5111 47.6915 41.5376 47.0063 41.6168ZM53.2818 30.9641C53.2557 30.6212 53.2557 30.3576 53.2026 30.0939C52.7284 27.4835 50.3285 26.0068 47.8238 26.5872C45.3713 27.1406 43.7894 28.6965 43.2094 31.1751C42.7347 33.2316 43.7367 35.3148 45.6349 36.1584C47.0855 36.7914 48.5356 36.7122 49.933 36.0005C52.0161 34.9193 53.1499 33.2317 53.2818 30.9641Z" fill="white"/>
<defs>
<linearGradient id="paint0_linear_1326_126" x1="6.95631" y1="2.625" x2="49.2844" y2="63" gradientUnits="userSpaceOnUse">
<stop stop-color="#00ACD7"/>
<stop offset="1" stop-color="#00A8D3"/>
</linearGradient>
</defs>
</svg>
