<svg width="64" height="63" viewBox="0 0 64 63" fill="none" xmlns="http://www.w3.org/2000/svg">
<rect x="0.5" width="63" height="63" rx="31.5" fill="url(#paint0_linear_1326_114)"/>
<path d="M52.0037 17.6917L33.9171 7.18966C32.7764 6.53997 31.2913 6.53997 30.1416 7.18966L11.8617 17.6917C10.6846 18.3689 9.85156 19.6416 9.85156 21.0029V41.9791C9.85156 43.3404 10.7063 44.6135 11.8835 45.2944L16.7131 48.0375C19.0214 49.1745 19.8372 49.1745 20.8876 49.1745C24.3055 49.1745 26.2578 47.1077 26.2578 43.5028V22.7941C26.2578 22.5016 26.1056 22.0664 25.8185 22.0664H23.5122C23.2202 22.0664 22.5664 22.5016 22.5664 22.7936V43.5024C22.5664 45.1004 21.121 46.6906 18.4197 45.3399L13.4294 42.4635C13.2554 42.3692 13.1328 42.1793 13.1328 41.9791V21.0029C13.1328 20.8052 13.3604 20.6067 13.5356 20.5054L31.7564 10.0214C31.9266 9.92499 32.1768 9.92499 32.3466 10.0214L50.3451 20.5029C50.5173 20.6067 50.4566 20.7991 50.4566 21.0029V41.9791C50.4566 42.1793 50.5317 42.3741 50.3615 42.4705L32.2793 52.9606C32.1243 53.0537 31.9319 53.0537 31.7621 52.9606L27.1245 50.1925C26.9846 50.1113 26.8185 50.0822 26.6844 50.1572C25.394 50.8885 25.1561 50.9857 23.9458 51.4053C23.648 51.5091 23.2087 51.6892 24.1139 52.1965L30.1834 55.787C30.7629 56.1217 31.4202 56.298 32.0894 56.2981C32.7629 56.2981 33.4224 56.1233 34.0036 55.787L52.0033 45.2944C53.1805 44.6086 53.7383 43.3404 53.7383 41.9791V21.0029C53.7383 19.6416 53.1805 18.3722 52.0037 17.6917ZM37.7053 38.6552C32.8958 38.6552 31.8363 37.3283 31.4832 34.9367C31.4422 34.6791 31.2236 34.3711 30.9615 34.3711H28.6109C28.3201 34.3711 28.0863 34.7239 28.0863 35.0134C28.0863 38.0757 29.7511 41.7859 37.7057 41.7859C43.4639 41.7859 46.7652 39.5485 46.7652 35.5889C46.7652 31.6629 44.1127 30.6325 38.5285 29.8934C32.8839 29.1474 32.3105 28.7704 32.3105 27.4481C32.3105 26.3579 32.7961 24.9039 36.9756 24.9039C40.7101 24.9039 42.0866 25.7053 42.653 28.2225C42.7014 28.4591 42.9175 28.6289 43.1616 28.6289H45.5216C45.6668 28.6289 45.8054 28.5703 45.9072 28.4665C46.0056 28.355 46.0577 28.2151 46.0446 28.065C45.6791 23.7304 42.7994 21.7104 36.9752 21.7104C31.7945 21.7104 28.704 23.8982 28.704 27.5654C28.704 31.5431 31.7789 32.6423 36.7521 33.1341C42.7014 33.7173 43.164 34.5869 43.164 35.757C43.164 37.7894 41.5324 38.6552 37.7053 38.6552Z" fill="white"/>
<defs>
<linearGradient id="paint0_linear_1326_114" x1="0.762436" y1="2.625" x2="58.5124" y2="67.2656" gradientUnits="userSpaceOnUse">
<stop stop-color="#83CD29"/>
<stop offset="1" stop-color="#74BE1A"/>
</linearGradient>
</defs>
</svg>
