<svg width="63" height="63" viewBox="0 0 63 63" fill="none" xmlns="http://www.w3.org/2000/svg">
<rect width="63" height="63" rx="31.5" fill="url(#paint0_linear_1326_124)"/>
<path d="M10.0321 40.1169C9.81563 40.1224 9.6002 40.0849 9.39837 40.0064C9.19653 39.9279 9.01233 39.81 8.85648 39.6597C8.70201 39.5146 8.57891 39.3394 8.49476 39.145C8.4106 38.9505 8.36719 38.7408 8.36719 38.5289C8.36719 38.317 8.4106 38.1074 8.49476 37.9129C8.57891 37.7184 8.70201 37.5432 8.85648 37.3982C9.01099 37.2449 9.19459 37.124 9.39648 37.0427C9.59837 36.9614 9.81449 36.9213 10.0321 36.9247C10.2511 36.9202 10.4688 36.9598 10.6721 37.0411C10.8755 37.1225 11.0604 37.2439 11.2159 37.3982C11.3726 37.542 11.4976 37.7167 11.5832 37.9114C11.6687 38.106 11.7129 38.3163 11.7129 38.5289C11.7129 38.7415 11.6687 38.9518 11.5832 39.1465C11.4976 39.3411 11.3726 39.5159 11.2159 39.6597C11.0591 39.811 10.8736 39.9294 10.6703 40.008C10.4669 40.0865 10.25 40.1235 10.0321 40.1169ZM28.4913 39.8556H25.4869L17.584 27.3808C17.3859 27.0715 17.219 26.7434 17.0859 26.4011H17.0125C17.099 27.1735 17.1318 27.9509 17.1104 28.7279V39.8556H14.4489V22.8823H17.6493L25.3317 35.0632C25.6583 35.5694 25.8624 35.8797 25.9604 36.1083H26.0012C25.9088 35.35 25.8706 34.586 25.8869 33.8223V22.8823H28.5321L28.4913 39.8556ZM41.4233 39.8556H32.1325V22.8823H41.0559V25.2744H34.8756V30.0831H40.5905V32.4589H34.8756V37.4798H41.407L41.4233 39.8556ZM54.6329 25.2744H49.8732V39.8556H47.1219V25.2744H42.3785V22.8823H54.6247L54.6329 25.2744Z" fill="white"/>
<defs>
<linearGradient id="paint0_linear_1326_124" x1="8.00606" y1="1.96875" x2="47.7092" y2="63" gradientUnits="userSpaceOnUse">
<stop stop-color="#6B3FA0"/>
<stop offset="1" stop-color="#552D85"/>
</linearGradient>
</defs>
</svg>
