<svg width="64" height="63" viewBox="0 0 64 63" fill="none" xmlns="http://www.w3.org/2000/svg">
<rect x="0.5" width="63" height="63" rx="31.5" fill="url(#paint0_linear_1326_117)"/>
<path d="M23.8036 34.6102C23.0518 35.3135 22.2171 35.6038 21.2978 35.9028C20.3784 36.2024 19.2086 36.1405 17.786 36.1405H14.562L13.6684 41.2965H9.90405L13.2632 23.7661H20.5022C22.6801 23.7661 24.2686 24.3926 25.2674 25.5357C26.2661 26.6787 26.5661 28.3013 26.1681 30.3498C26.0036 31.1938 25.7268 31.9786 25.3359 32.6777C24.9309 33.3991 24.4137 34.0514 23.8036 34.6102ZM34.7915 36.1405L36.2769 28.7056C36.4461 27.8352 36.3842 27.1887 36.0908 26.8726C35.7969 26.556 35.172 26.3441 34.2166 26.3441H31.2313L29.3076 36.1405H25.5726L28.9317 19.1257H32.6667L31.7737 23.7661H35.1009C37.1947 23.7661 38.6384 24.1863 39.4329 24.9164C40.2275 25.6465 40.4657 26.6468 40.1481 28.2823L38.5853 36.1405H34.7915ZM55.549 30.3771C55.385 31.2212 55.1076 31.9925 54.7173 32.6911C54.3265 33.3908 53.8161 34.0307 53.1855 34.6102C52.4337 35.3135 51.5985 35.6038 50.6797 35.9028C49.7609 36.2024 48.59 36.1405 47.1674 36.1405H43.9434L43.0504 41.2965H39.286L42.6446 23.7661H49.8841C52.062 23.7661 53.6506 24.3926 54.6488 25.5357C55.6464 26.6787 55.947 28.3292 55.549 30.3771ZM48.4574 26.3441H45.8789L44.4729 33.5625H46.7632C48.2801 33.5625 49.4113 33.413 50.1538 32.8407C50.8973 32.2694 51.3979 31.3825 51.6583 30.0456C51.9078 28.7612 51.7944 27.7594 51.318 27.2315C50.8411 26.7035 49.8877 26.3441 48.4574 26.3441ZM19.076 26.3441H16.497L15.091 33.5625H17.3808C18.8982 33.5625 20.0289 33.413 20.7718 32.8407C21.5148 32.2694 22.016 31.3825 22.2758 30.0456C22.5254 28.7612 22.412 27.7594 21.9356 27.2315C21.4591 26.7035 20.5063 26.3441 19.076 26.3441Z" fill="white"/>
<defs>
<linearGradient id="paint0_linear_1326_117" x1="6.73437" y1="2.625" x2="51.6875" y2="65.625" gradientUnits="userSpaceOnUse">
<stop stop-color="#6181B6"/>
<stop offset="1" stop-color="#5979AE"/>
</linearGradient>
</defs>
</svg>
