<svg width="64" height="63" viewBox="0 0 64 63" fill="none" xmlns="http://www.w3.org/2000/svg">
<rect x="0.5" width="63" height="63" rx="31.5" fill="url(#paint0_linear_1326_249)"/>
<path d="M31.7677 11.7593C30.1572 11.767 28.62 11.9039 27.2666 12.1435C23.2805 12.8476 22.5573 14.3215 22.5573 17.0401V20.6299H31.9764V21.8265H19.022C16.2848 21.8265 13.8878 23.4717 13.1378 26.6026C12.2727 30.1901 12.2346 32.4292 13.1378 36.1754C13.8073 38.9642 15.4063 40.9507 18.1439 40.9507H21.3828V36.6472C21.3828 33.5381 24.0724 30.7958 27.267 30.7958H36.6754C39.2944 30.7958 41.3848 28.6391 41.3848 26.0094V17.0405C41.3848 14.4874 39.2311 12.5699 36.6754 12.1438C35.0566 11.8745 33.3778 11.7521 31.7677 11.7593ZM26.6739 14.6465C27.6466 14.6465 28.4415 15.454 28.4415 16.4473C28.4415 17.4364 27.6469 18.2363 26.6739 18.2363C25.6974 18.2363 24.9066 17.4364 24.9066 16.4473C24.9062 15.454 25.6974 14.6465 26.6739 14.6465Z" fill="#386F9F"/>
<path d="M42.5593 21.8266V26.0095C42.5593 29.2518 39.8099 31.9811 36.6751 31.9811H27.2667C24.6897 31.9811 22.5574 34.187 22.5574 36.7678V45.7376C22.5574 48.2898 24.7766 49.7916 27.2667 50.5236C30.2481 51.3998 33.1074 51.5585 36.6751 50.5236C39.0462 49.8366 41.3845 48.455 41.3845 45.7376V42.1474H31.9765V40.9504H46.0946C48.8318 40.9504 49.8526 39.0413 50.8047 36.1751C51.7881 33.2246 51.7457 30.387 50.8047 26.6023C50.128 23.8768 48.836 21.8262 46.0946 21.8262H42.5593V21.8266ZM37.2675 44.5406C38.2444 44.5406 39.0351 45.3405 39.0351 46.3303C39.0351 47.3229 38.244 48.1304 37.2675 48.1304C36.2948 48.1304 35.5003 47.3229 35.5003 46.3303C35.5003 45.3405 36.2948 44.5406 37.2675 44.5406Z" fill="#FFCF46"/>
<defs>
<linearGradient id="paint0_linear_1326_249" x1="0.368622" y1="0.984375" x2="53.1967" y2="67.9219" gradientUnits="userSpaceOnUse">
<stop stop-color="#242429"/>
<stop offset="1" stop-color="#18181D"/>
</linearGradient>
</defs>
</svg>
